<svg width="527" height="525" viewBox="0 0 527 525" fill="none" xmlns="http://www.w3.org/2000/svg">
<path fill-rule="evenodd" clip-rule="evenodd" d="M316.517 136.823L311.711 157.637L337.674 156.838L338.87 138.722C338.87 138.722 344.118 141.241 347.735 141.321C351.055 141.394 356.065 139.481 356.065 139.481C356.065 139.481 351.932 145.552 351.415 150.004C350.927 154.197 353.22 160.62 353.22 160.62L310.297 163.646L306.348 182.181C306.348 182.181 312.157 187.571 316.835 188.98C319.328 189.731 321.43 189.322 323.529 188.914C325.641 188.503 327.75 188.093 330.254 188.864C332.791 189.647 334.342 190.955 335.969 192.328C337.212 193.376 338.499 194.462 340.303 195.38C346.195 198.378 349.768 200.117 356.367 200.757C361.3 201.236 369.055 199.853 369.055 199.853L379.542 206.652L385.222 210.335C385.222 210.335 382.423 215.053 380.336 217.872C377.98 221.053 375.908 223.068 373.652 225.264C372.263 226.615 370.804 228.034 369.166 229.835C367.723 231.421 366.435 232.791 365.225 234.078C362.139 237.359 359.569 240.093 356.271 244.459C351.918 250.221 346.21 259.976 346.21 259.976C346.21 259.976 354.977 257.85 360.255 255.543C365.266 253.354 367.932 251.735 372.472 248.666C379.138 244.161 382.548 241.04 388.057 235.157C392.94 229.944 395.565 226.813 399.285 220.712C402.096 216.101 405.447 208.335 405.447 208.335L406.172 220.14C406.172 220.14 405.81 227.677 405.305 232.486L405.206 233.431C404.422 240.916 403.947 245.445 401.948 252.979C400.609 258.025 399.292 261.319 397.681 265.35L397.68 265.351L397.674 265.366C397.097 266.81 396.482 268.349 395.814 270.097C395.297 271.453 394.815 272.726 394.356 273.938L394.35 273.953C391.594 281.229 389.662 286.33 385.806 294.149C383.028 299.783 380.422 303.836 377.763 307.975C375.439 311.591 373.074 315.271 370.515 320.127C369.043 322.92 367.656 325.421 366.351 327.777L366.35 327.778C361.875 335.852 358.351 342.209 355.626 352.664C352.929 363.007 352.057 369.144 352.309 379.795C352.482 387.078 354.598 398.281 354.598 398.281C354.598 398.281 362.147 391.171 366.493 386.157C369.571 382.606 371.45 380.024 373.742 376.874C374.579 375.724 375.471 374.498 376.496 373.122C377.569 371.682 378.554 370.373 379.483 369.139C383.201 364.199 386.01 360.467 389.873 354.403C393.982 347.955 399.635 337.433 399.635 337.433C399.635 337.433 402.951 331.118 404.866 326.972C408.487 319.13 410.16 314.56 412.937 306.387C415.317 299.381 416.577 294.357 418.036 288.541C418.71 285.851 419.427 282.991 420.318 279.687C422.116 273.012 423.788 267.185 425.358 261.716L425.358 261.714C429.329 247.879 432.642 236.333 435.688 219.126C436.652 213.681 437.924 205.148 437.924 205.148L435.343 198.122C435.343 198.122 429.561 182.1 424.74 172.356C420.428 163.642 417.85 158.782 412.35 150.785C408.011 144.476 404.983 140.966 400.365 135.615L400.363 135.612C399.87 135.041 399.36 134.45 398.827 133.831C394.575 128.891 387.581 121.502 387.581 121.502L376.422 111.433L366.275 112.726C366.275 112.726 338.08 109.365 325.479 119.65C325.075 119.98 324.692 120.285 324.326 120.577L324.325 120.579L324.322 120.581C322.25 122.235 320.736 123.443 319.207 125.974C316.945 129.716 316.517 136.823 316.517 136.823ZM431.224 271.96L426.401 289.928C426.401 289.928 422.457 304.119 419.215 312.976C416.547 320.267 414.869 324.298 411.639 331.363C407.93 339.473 405.813 344.038 401.245 351.701C397.673 357.694 395.048 361.302 391.463 366.23C390.699 367.28 389.892 368.389 389.023 369.595C388.099 370.876 387.249 372.066 386.444 373.192L386.439 373.198C382.555 378.633 379.724 382.593 374.703 388.332C364.588 399.891 357.956 405.64 345.705 414.87C335.548 422.522 329.689 426.843 318.248 432.331C317.979 432.46 317.717 432.586 317.461 432.71C317.136 432.867 316.82 433.019 316.513 433.168C312.8 434.965 310.237 436.205 305.876 437.533C303.447 438.273 299.575 439.116 299.575 439.116C299.575 439.116 289.993 438.302 283.897 437.452C272.103 435.806 265.508 434.499 254.047 431.322C246.741 429.298 242.69 427.971 235.586 425.335L234.793 425.041C228.878 422.848 225.31 421.525 219.442 418.647C212.185 415.087 208.085 412.129 202.922 408.404C199.899 406.223 196.513 403.78 191.915 400.799C179.462 392.725 167.204 381 167.204 381C167.204 381 154.03 365.805 146.087 355.659C139.87 347.719 130.655 334.949 130.655 334.949C130.655 334.949 131.418 347.965 133.467 355.978C135.116 362.424 139.223 371.989 139.223 371.989L147.041 369.502C147.041 369.502 152.673 377.035 156.545 381.646C163.74 390.212 168.023 394.864 176.329 402.344C184.973 410.128 190.264 414.04 199.941 420.486C211.392 428.113 218.116 432.106 230.729 437.614C242.169 442.61 248.988 444.517 261.039 447.82C272.785 451.038 279.518 452.38 291.544 454.374C293.3 454.665 296.046 455.089 296.046 455.089L310.246 464.296C310.246 464.296 319.48 469.73 326.097 470.479C332.143 471.164 335.808 470.528 341.608 468.572C347.008 466.75 349.989 464.446 354.009 461.338L354.009 461.338L354.012 461.336C354.813 460.717 355.656 460.065 356.567 459.379C363.094 454.468 366.317 451.085 371.785 445.002C377.589 438.544 380.331 434.451 385.165 427.236L385.168 427.232C391.322 418.046 394.197 412.503 399.235 402.663C402.699 395.898 404.571 392.058 407.542 385.065C412.95 372.334 415.19 364.853 419.016 351.573C422.101 340.863 423.713 334.801 425.81 323.863C427.562 314.725 428.264 309.544 429.293 300.304C430.521 289.272 431.224 271.96 431.224 271.96ZM128.282 374.026L123.711 361.932C123.711 361.932 119.47 347.592 118.996 338.095C118.597 330.108 119.004 325.523 120.467 317.638C122.198 308.308 128.014 294.51 128.014 294.51C128.014 294.51 120.176 294.197 115.251 295.051C109.184 296.104 105.356 298.127 100.802 300.534C98.994 301.49 97.0712 302.507 94.848 303.547C93.6496 304.108 92.5175 304.633 91.4357 305.134L91.4224 305.14C84.3108 308.437 79.3772 310.723 72.1451 315.59C62.4437 322.119 45.5422 337.069 45.5422 337.069C45.5422 337.069 56.3359 339.974 70.9905 340.345C85.6451 340.715 102.743 337.317 102.743 337.317C102.743 337.317 90.3137 344.865 81.4772 347.144C71.5101 349.713 55.2267 348.385 55.2267 348.385C55.2267 348.385 66.5316 359.193 75.1251 364.12C85.0762 369.826 91.397 372.345 102.75 374.16C112.577 375.73 128.282 374.026 128.282 374.026ZM42.9743 325.644C42.9743 325.644 50.4356 318.062 55.6679 313.723C64.2287 306.624 69.6072 303.295 79.2905 297.869C80.0529 297.441 80.7927 297.025 81.5136 296.62C91.264 291.138 97.5447 287.607 108.95 284.669C119.396 281.978 136.35 281.653 136.35 281.653C136.35 281.653 139.758 275.584 142.53 272.122C145.922 267.885 148.669 265.684 152.372 262.716L152.372 262.715C153.176 262.071 154.026 261.39 154.936 260.644C155.193 260.435 155.442 260.23 155.687 260.03C159.673 256.763 162.15 254.733 166.779 251.951C171.893 248.877 175.585 247.477 180.331 245.677C181.668 245.17 183.088 244.631 184.647 244.015C185.862 243.534 186.992 243.08 188.064 242.649C193.772 240.357 197.871 238.71 204.625 237.132C212.557 235.278 225.282 234.467 225.282 234.467C225.282 234.467 211.273 223.495 201.031 218.744C190.664 213.935 184.258 212.301 172.981 210.318C164.001 208.739 158.82 208.1 149.685 208.438C139.493 208.816 133.721 209.967 123.889 212.808C115.851 215.13 111.423 216.896 103.917 220.639C91.2943 226.934 84.8338 231.983 74.3037 241.426C65.6627 249.175 61.4605 254.272 54.1998 263.34C47.4896 271.72 38.3791 285.827 38.3791 285.827C38.3791 285.827 38.0988 290.498 38.0632 293.493L38.0625 293.549C37.9904 299.617 37.9493 303.081 38.8113 309.091C39.759 315.699 42.9743 325.644 42.9743 325.644ZM42.6671 263.419C42.6671 263.419 53.2645 247.836 61.5232 239.122C70.7227 229.415 76.4837 224.336 87.6465 217.017C96.358 211.305 101.57 208.454 111.217 204.593C119.664 201.211 124.632 199.799 133.518 197.956C143.071 195.975 148.584 194.966 158.308 195.138C170.44 195.352 177.258 197.144 188.808 200.744C201.273 204.629 208.329 207.448 219.141 214.743C230.548 222.44 244.605 239.124 244.605 239.124L237.475 211.832C237.475 211.832 228.506 194.048 219.542 185.407C211.265 177.429 205.325 174.143 194.855 169.401C184.8 164.847 178.65 162.965 167.678 161.542C155.618 159.977 148.461 160.28 136.495 162.734C124.516 165.19 117.85 167.866 107.186 173.957C97.2435 179.636 92.2137 183.962 84.012 191.991C76.4658 199.379 72.6239 204.839 67.1836 212.571C66.2716 213.867 65.3146 215.227 64.2877 216.67C58.7862 224.405 51.0655 237.064 51.0655 237.064L42.6671 263.419ZM260.444 255.376C260.202 255.22 259.963 255.067 259.728 254.916L259.72 254.91C253.237 250.748 249.149 248.124 241.386 246.482C235.433 245.223 231.705 245.494 225.94 245.912C225.65 245.933 225.354 245.955 225.053 245.976C224.912 245.986 224.77 245.996 224.627 246.007C218.515 246.441 214.816 247.31 209.372 248.588L209.371 248.588C208.646 248.759 207.889 248.936 207.092 249.121C205.883 249.401 204.724 249.666 203.607 249.921C193.774 252.165 187.126 253.682 177.484 258.891C169.236 263.347 158.059 273.059 158.059 273.059L148.044 284.198C148.044 284.198 161.267 294.175 170.978 298.122C179.145 301.442 184.494 302.299 192.613 303.599C193.412 303.727 194.238 303.859 195.096 303.999C204.771 305.57 210.312 306.29 220.134 306.063C226.165 305.924 230.785 304.847 235.42 303.766C239.962 302.708 244.516 301.645 250.426 301.46C260.433 301.145 266.205 301.14 275.969 303.223C283.581 304.846 294.867 309.493 294.867 309.493C294.867 309.493 289.485 294.468 285.144 285.243C284.355 283.567 283.703 282.056 283.091 280.637C281.421 276.77 280.044 273.581 276.997 269.571C271.838 262.781 267.611 259.972 260.444 255.376ZM297.408 321.846C297.408 321.846 286.521 314.453 278.562 312.146C270.383 309.775 256.79 310.309 256.79 310.309C256.79 310.309 262.645 318.067 266.081 323.26C266.694 324.186 267.261 325.027 267.795 325.82C269.913 328.963 271.52 331.347 273.481 335.299C275.688 339.746 276.693 343.161 277.824 347.005C278.418 349.025 279.047 351.163 279.904 353.631C280.91 356.53 281.64 359.02 282.331 361.379C283.562 365.574 284.67 369.354 286.993 374.285C290.555 381.845 292.665 386.235 298.13 392.525C301.719 396.657 308.416 402.028 308.416 402.028L318.919 399.707C318.919 399.707 312.123 388.079 309.007 380.057C306.094 372.559 305.02 367.546 303.526 360.568C303.245 359.257 302.95 357.877 302.624 356.398C299.695 343.083 297.408 321.846 297.408 321.846ZM340.605 268.621L307.694 319.384L308.924 330.886L310.083 356.582C310.083 356.582 315.472 340.566 318.163 335.302C319.108 333.455 319.885 331.876 320.62 330.383C322.015 327.548 323.254 325.029 325.188 321.596C329.847 313.326 332.505 308.631 338.41 301.202C340.871 298.107 342.989 295.973 345.172 293.775C346.977 291.957 348.826 290.094 350.949 287.607C353.062 285.13 355.257 282.92 357.43 280.732C360.647 277.492 363.817 274.3 366.603 270.364C370.596 264.722 373.317 256.456 373.317 256.456C373.317 256.456 363.529 261.646 356.898 264.072C350.687 266.344 340.605 268.621 340.605 268.621ZM383.793 250.829L397.13 236.001C397.13 236.001 396.027 243.628 394.957 248.446C391.686 263.179 387.962 271.064 381.396 284.678C379.011 289.624 374.871 297.135 374.871 297.135C374.871 297.135 363.407 314.541 357.424 326.438C352.296 336.634 345.91 353.292 345.91 353.292C345.91 353.292 342.834 366.474 342.996 375.016C343.14 382.648 346.436 396.635 346.436 396.635L327.186 399.4C327.186 399.4 321.33 390.333 318.533 384.029C316.521 379.493 314.181 372.077 314.181 372.077C314.181 372.077 316.721 362.482 318.728 356.448C321.879 346.973 323.73 341.621 328.23 332.698C333.851 321.554 338.031 315.787 345.62 305.876C349.728 300.512 356.71 292.601 356.71 292.601L368.529 280.114C368.529 280.114 370.266 277.666 373.595 272.301L373.815 271.946L374.136 271.429C376.748 267.228 378.235 264.835 380.172 259.956C381.751 255.98 383.793 250.829 383.793 250.829ZM247.011 312.47L227.228 315.701C227.228 315.701 230.858 320.145 232.932 323.177C236.918 329.005 238.804 333.26 241.268 338.819C241.909 340.266 242.589 341.8 243.356 343.474C245.064 347.205 246.146 350.353 247.195 353.409L247.196 353.409C248.53 357.293 249.813 361.028 252.268 365.624C254.763 370.294 256.36 372.814 259.374 377.159C262.864 382.189 265.025 384.881 269.097 389.444C274.067 395.015 282.815 402.746 282.815 402.746L288.978 402.334L294.491 402.445C294.491 402.445 288.703 395.839 285.718 391.09C282.715 386.314 281.408 383.207 279.33 378.269L279.317 378.237C279.178 377.905 279.034 377.565 278.887 377.216C276.646 371.901 275.586 368.506 274.025 363.504C273.811 362.818 273.587 362.102 273.35 361.346C272.616 359.011 272.161 357.048 271.723 355.162C271.098 352.466 270.51 349.929 269.198 346.69C267.551 342.622 266.003 340.056 264.129 336.948C263.427 335.783 262.679 334.543 261.862 333.118C261.137 331.854 260.517 330.725 259.935 329.665C258.349 326.777 257.046 324.404 254.681 321.221C251.969 317.571 247.011 312.47 247.011 312.47ZM216.069 317.597L202.501 316.986C202.501 316.986 204.913 330.849 208.366 339.05C211.616 346.766 214.771 351.089 219.145 357.083C219.953 358.189 220.801 359.352 221.7 360.603C227.544 368.745 231.299 372.97 238.068 380.347C239.335 381.727 240.431 382.984 241.459 384.164L241.46 384.165L241.461 384.165C244.377 387.51 246.757 390.24 250.987 393.445C253.905 395.656 258.852 398.545 258.852 398.545L269.747 400.885C269.747 400.885 264.072 397.896 261.008 395.22C257.027 391.742 255.291 388.403 253.254 384.487C252.394 382.832 251.479 381.074 250.32 379.159C249.594 377.961 248.911 376.849 248.263 375.793L248.258 375.786C244.833 370.207 242.367 366.189 239.608 359.306C238.895 357.526 238.458 356.07 238.027 354.632C237.557 353.065 237.093 351.519 236.285 349.594C234.824 346.12 233.477 343.834 231.931 341.209L231.931 341.208L231.93 341.208C231.189 339.95 230.402 338.614 229.535 337.032C228.571 335.274 227.835 333.715 227.141 332.244C225.765 329.329 224.553 326.76 222.054 323.681C219.953 321.091 216.069 317.597 216.069 317.597ZM192.268 316.018L172.945 311.362L160.072 305.849L150.896 299.9C150.896 299.9 147.906 300.89 154.231 311.508L170.428 338.696C175.017 346.399 178.06 349.035 182.034 352.477C183.538 353.779 185.174 355.197 187.078 357.048C193.557 363.346 197.295 366.833 204.579 372.173C213.856 378.972 229.985 387.07 229.985 387.07C229.985 387.07 220.858 375.564 215.433 367.875C214.248 366.195 213.158 364.69 212.133 363.274L212.129 363.269C208.562 358.342 205.781 354.5 202.474 348.138C199.015 341.484 197.113 337.638 195.039 330.41C193.463 324.915 192.268 316.018 192.268 316.018ZM138.99 298.163L132.218 317.701C132.218 317.701 142.614 335.583 150.237 346.386C150.893 347.315 151.527 348.216 152.143 349.091C159.705 359.832 164.545 366.708 174.431 376.555C185.506 387.586 192.527 393.164 205.845 401.33C218.619 409.162 226.61 412.227 240.617 417.577L240.846 417.665C253.434 422.473 260.669 425.237 273.974 427.869C284.433 429.939 301.121 430.987 301.121 430.987L346.366 404.278C346.366 404.278 320.379 410.984 303.397 411.683C290.963 412.194 283.889 411.841 271.616 409.968C260.845 408.325 254.813 406.941 244.52 403.42C231.991 399.135 225.264 395.681 213.893 388.916C200.488 380.942 193.178 375.746 182.048 364.806C171.264 354.206 166.281 347.098 157.998 334.415C149.266 321.046 138.99 298.163 138.99 298.163Z" fill="#B0E4AC"/>
</svg>
